<svg xmlns="http://www.w3.org/2000/svg"  viewBox="0 0 520 520" width="100px" height="100px"><path fill="#ff5987" d="M390,95v350L260,340L130,445V95C170.795,95,355.796,95,390,95z"/><path fill="#59d9a4" d="M450,105c11.05,0,20,8.95,20,20s-8.95,20-20,20s-20-8.95-20-20S438.95,105,450,105z"/><path fill="#59d9a4" d="M75,305c13.81,0,25,11.19,25,25s-11.19,25-25,25s-25-11.19-25-25S61.19,305,75,305z"/><path fill="#57606f" d="M390,60v35c-11.309,0-246.995,0-260,0V60H390z"/><polygon fill="#fc6" points="332.43,184.85 287.67,217.38 304.76,270 260,237.48 215.24,270 232.33,217.38 187.57,184.85 242.9,184.85 260,132.23 277.1,184.85"/><circle cx="442.5" cy="457.5" r="7.5"/><circle cx="432.5" cy="287.5" r="7.5"/><circle cx="267.5" cy="427.5" r="7.5"/><circle cx="97.5" cy="182.5" r="7.5"/><circle cx="82.5" cy="422.5" r="7.5"/><circle cx="57.5" cy="87.5" r="7.5"/><path d="M304.76,275c-1.031,0-2.063-0.318-2.939-0.955L260,243.66l-41.821,30.385c-1.752,1.273-4.125,1.273-5.877,0 c-1.752-1.272-2.486-3.529-1.817-5.59l15.968-49.166l-41.822-30.395c-1.752-1.273-2.485-3.53-1.816-5.59s2.589-3.455,4.755-3.455 h51.698l15.977-49.166c0.669-2.06,2.589-3.455,4.755-3.455s4.086,1.395,4.756,3.455l15.977,49.166h51.697 c2.166,0,4.086,1.395,4.756,3.455s-0.063,4.317-1.816,5.59l-41.822,30.395l15.969,49.166c0.669,2.061-0.064,4.317-1.817,5.59 C306.822,274.682,305.791,275,304.76,275z M202.955,189.85l32.315,23.485c1.752,1.273,2.485,3.53,1.816,5.589l-12.337,37.987 l32.313-23.477c1.754-1.273,4.125-1.273,5.879,0l32.313,23.477l-12.338-37.987c-0.668-2.06,0.064-4.316,1.816-5.589l32.314-23.485 H277.1c-2.166,0-4.086-1.395-4.755-3.455L260,148.408l-12.345,37.987c-0.669,2.06-2.589,3.455-4.755,3.455H202.955z"/><path d="M390.001,450c-1.123,0-2.235-0.378-3.143-1.11L260,346.427L133.142,448.89c-1.498,1.209-3.56,1.453-5.297,0.622 c-1.738-0.83-2.845-2.586-2.845-4.512V95c0-2.761,2.239-5,5-5s5,2.239,5,5v339.534l121.858-98.424c1.833-1.48,4.45-1.48,6.283,0 L385,434.534V95c0-2.761,2.238-5,5-5s5,2.239,5,5v350c0,1.926-1.106,3.682-2.845,4.512C391.469,449.839,390.732,450,390.001,450z"/><path d="M390,100H130c-2.761,0-5-2.239-5-5V60c0-2.761,2.239-5,5-5h260c2.762,0,5,2.239,5,5v35C395,97.761,392.762,100,390,100z M135,90h250V65H135V90z"/><path d="M360,195c-2.762,0-5-2.239-5-5V95c0-2.761,2.238-5,5-5s5,2.239,5,5v95C365,192.761,362.762,195,360,195z"/><path d="M185,150c-2.761,0-5-2.239-5-5V95c0-2.761,2.239-5,5-5s5,2.239,5,5v50C190,147.761,187.761,150,185,150z"/><path d="M160,290c-2.761,0-5-2.238-5-5V95c0-2.761,2.239-5,5-5s5,2.239,5,5v190C165,287.762,162.761,290,160,290z"/><path d="M450,150c-13.785,0-25-11.215-25-25s11.215-25,25-25s25,11.215,25,25S463.785,150,450,150z M450,110 c-8.271,0-15,6.729-15,15s6.729,15,15,15s15-6.729,15-15S458.271,110,450,110z"/><path d="M75,360c-16.542,0-30-13.458-30-30s13.458-30,30-30s30,13.458,30,30S91.542,360,75,360z M75,310c-11.028,0-20,8.972-20,20 s8.972,20,20,20s20-8.972,20-20S86.028,310,75,310z"/></svg>