<svg xmlns="http://www.w3.org/2000/svg" xmlns:xlink="http://www.w3.org/1999/xlink" viewBox="0,0,256,256" width="100px" height="100px" fill-rule="nonzero"><g fill="#f2718e" fill-rule="nonzero" stroke="none" stroke-width="1" stroke-linecap="butt" stroke-linejoin="miter" stroke-miterlimit="10" stroke-dasharray="" stroke-dashoffset="0" font-family="none" font-weight="none" font-size="none" text-anchor="none" style="mix-blend-mode: normal"><g transform="scale(10.66667,10.66667)"><path d="M9,1c-0.552,0 -1,0.448 -1,1v1c0,0.552 0.448,1 1,1c0.552,0 1,-0.448 1,-1v-1c0,-0.552 -0.448,-1 -1,-1zM13,2c-0.552,0 -1,0.448 -1,1c0,0.552 0.448,1 1,1c0.552,0 1,-0.448 1,-1c0,-0.552 -0.448,-1 -1,-1zM5,6c-0.631,0 -1.10347,0.57631 -0.98047,1.19531l1.83789,9.19727c0.187,0.935 1.00794,1.60742 1.96094,1.60742h6.36328c0.953,0 1.77394,-0.67242 1.96094,-1.60742l0.47852,-2.39258h1.87891c0.91215,0 1.71691,-0.62945 1.93945,-1.51367l0.5,-2c0.30964,-1.23855 -0.66275,-2.48633 -1.93945,-2.48633h-1.17969l0.16016,-0.80469c0.123,-0.619 -0.34947,-1.19531 -0.98047,-1.19531zM17.41992,10h1.58008l-0.5,1.99805v0.00195h-1.48047zM4,20c-0.552,0 -1,0.448 -1,1c0,0.552 0.448,1 1,1h14c0.552,0 1,-0.448 1,-1c0,-0.552 -0.448,-1 -1,-1z"></path></g></g></svg>