<svg xmlns="http://www.w3.org/2000/svg"  viewBox="0 0 512 512" width="100px" height="100px"><path fill="#FEBF10" d="M255.4 222c.2.1.4.3.5.4.3.3.6.7.9 1.1.2.1.4.3.6.5.9.9 1.5 2.2 1.5 3.5 0 1.3-.5 2.7-1.4 3.6-.9.9-2.2 1.6-3.5 1.5-.8 0-1.5-.1-2.3-.2-.8-.2-2.1-.8-2.6-1.5-.8-1-1-1.1-1.4-2.3-.2-.5-.2-1-.2-1.5 0-.3 0-.6 0-.9.1-1.4.4-2.6 1.4-3.6.4-.4.8-.7 1.2-.9-2.8-.3-5.7-.5-8.5-.9.6.8.9 1.8 1 2.8 0 1.3-.5 2.7-1.4 3.6-.9.9-2.2 1.6-3.5 1.5l-1.5-.1c-1.4-.1-2.6-.4-3.6-1.4-.9-.9-1.5-2.2-1.5-3.5 0-1.3.5-2.7 1.4-3.6.1-.1.2-.2.3-.3-7.4-.8-15.2-1.5-22.3-3.5-.6.1-1.3.2-2 .1-.6-.1-1.3-.2-1.9-.4-.1.4-.3.7-.5 1 .1.1.1.1.2.2 1.7 1.6 3.7 2.8 5.7 4 4.8 2.9 9.8 5.4 14.7 8.1 5.7 3.1 11 6.1 17.6 7.2 8.7 1.4 17-.4 24.7-4.7 1-.6 2-.7 2.9-.7-1-3.2.6-7.2 4.9-6.9 1.1.1 2.1.4 2.9.9.1-.1.2-.1.3-.2 1.7-1.1 3.4-2.1 5.2-3C275.1 222.8 265.2 222.7 255.4 222zM294.3 204.8c-2.8-.6-5.7-1.1-8.6-1.4-15.9-1.9-32.3-1.7-48.1-.2-7.1.7-14.4 1.6-21.3 3.6-.2.1-.5.1-.7.2 4 .8 8.1 1.2 11.9 1.8 10.8 1.6 21.7 2.8 32.7 3.3 7.7.4 15.6.5 23.3-.2 5-.5 11-1.1 15-3.9.7-.5 1.1-1.1 1.3-1.5C298.5 205.9 296.5 205.3 294.3 204.8z"/><path fill="#74CCCF" d="M304.4,234.6c9.1-5.9,18.1-11.3,25.7-19.2c8.6-8.8,15.4-19,20.3-30.3c9.6-22.4,11.7-47.2,13.1-71.2c0.1-2.2,0.2-4.4,0-6.5c-6.8,1.5-13.9,1.9-20.9,2c-29.7,0.2-59.3,3-89,4.6c-16.4,0.9-32.7,1.6-49.1,2.3c-13.1,0.6-26,1.7-39,2.5c-6.1,0.4-13.4,0.9-20.7,0.6c-1,16.4,1.4,32.9,5.7,48.7c4.4,15.8,9.8,33.6,19.9,46.8c8.4,10.9,20.7,17.5,32.9,23.2c10.1,4.6,25.2,9.4,30.5,20.2c1.1,2.3,0.4,4.6-1.1,6c-2.1,12.5-12.4,21.4-22.3,28.8c-3.3,2.5-6.2,6.1-9.1,9c-2.9,2.9-5.8,5.8-8.6,8.8c-5.1,5.4-10.1,10.8-14.6,16.6c-9.5,12.1-17.2,25.7-21.5,40.5c-5,17.5-4.1,35.9-4.9,54c0,0.2,0,0.4,0,0.6l-0.2,3.4c0,0.4-0.1,0.7-0.1,1c11.8-0.6,23.5-1.3,35.3-2c0.1-2.5,2.3-4.9,4.9-4.8c0.1,0,0.2,0,0.3,0c0.2-0.4,0.5-0.8,0.9-1.2c0.9-0.9,2.2-1.5,3.5-1.5c1.2,0,2.5,0.5,3.4,1.3c0.9-1,2.2-1.7,4-1.6c0-2.5,2.1-5.1,4.7-5c0.9-0.8,2-1.3,3.1-1.3c0.2-0.1,0.5-0.2,0.7-0.4c-0.2-2.6,1.2-5.2,4.1-5.5c0.1-0.5,0.3-1.1,0.6-1.6c2.4-4.1,5.4-7.9,8.9-11.1c1.4-1.2,3.2-1.7,4.9-1.3c0.1-0.2,0.3-0.3,0.4-0.5c1.2-1.6,2-3.4,3.6-4.5c2.8-2.1,6.7-2,10-1.8c2,0.1,3.8,1.2,4.6,2.9c0.1-0.1,0.2-0.1,0.3-0.2c-0.1-0.8,0-1.6,0.2-2.3c-1.2-0.9-2-2.2-2-3.8c-0.1-2.6,2.2-5.3,4.9-5.1c3,0.2,6.2,0.4,8.8,1.6c9.9,0.3,19.5,4.3,27.2,10.5c1.2-2.2,3.8-3.5,6.6-1.7c4.7,2.9,7.5,8.1,10.2,12.8c0.3,0.4,0.4,0.9,0.5,1.3c0.9,0.2,1.6,0.7,2.3,1.2c0,0,0,0,0,0c5.1-0.6,9.8,1.3,13.2,4.4c0.2,0.2,0.5,0.4,0.7,0.6c0.3,0.3,0.6,0.7,0.8,1.1c2.8,3.5,4.1,8,3,12.9c-0.2,0.7-0.4,1.3-0.8,1.8c7.4-0.7,14.9-1.5,22.3-2.3c2.5-0.3,5.2-0.5,7.8-0.6c-0.6-0.7-1-1.5-1.2-2.6c-0.6-2.4,0.5-4.3,2.1-5.3c-3.4-23-15.7-44.1-26.6-64.3c-6.8-12.6-12.8-26.6-22.7-37c-8.8-9.2-20.3-18.2-25.5-30.2C272.2,259.3,288.4,244.9,304.4,234.6z M280.5,233.9c-0.9,0.8-2.1,1.3-3.7,1.2c-0.2,0-0.4,0-0.6-0.1c0.5,1.9,0,4-2.3,5.3c-5.6,3.2-11.7,5.3-18,6.2c2,3.7,2.6,8,1,12.2c-0.9,2.6-3.2,4.3-6.1,3.6c-2.4-0.6-4.5-3.5-3.6-6.1c1.2-3.3,0.2-5.3-2.5-7.4c-0.7-0.6-1.2-1.4-1.4-2.3c-1.1-0.2-2.2-0.4-3.3-0.6c-8.4-1.9-15.4-6.2-22.9-10.2c-6.5-3.4-30-15-19.7-24.5c-0.4-1.4-0.3-2.9,0.3-4.1c2.3-4.9,8.1-7.4,12.9-9c7-2.3,14.4-3.5,21.7-4.4c16.8-2,34.1-2.3,51-0.5c6.6,0.7,21.2,1.2,25.2,8.4c4-0.3,7,5,4.3,8.2c0,0.5,0,0.9-0.1,1.4c-0.2,1.5-0.9,2.8-1.7,4.1c-2,2.9-4.7,5.7-7.6,7.7c-5.9,4.1-12.8,6.5-18.8,10.6C283.3,234.5,281.7,234.5,280.5,233.9z"/><path fill="#010101" d="M308.7 201.6c-4-7.3-18.6-7.7-25.2-8.4-16.9-1.8-34.2-1.4-51 .5-7.3.9-14.7 2-21.7 4.4-4.8 1.6-10.6 4.2-12.9 9-.6 1.2-.7 2.7-.3 4.1-10.4 9.4 13.2 21 19.7 24.5 7.5 4 14.5 8.2 22.9 10.2 1.1.3 2.2.4 3.3.6.2.9.6 1.7 1.4 2.3 2.7 2.1 3.7 4.2 2.5 7.4-.9 2.6 1.2 5.5 3.6 6.1 2.8.7 5.1-1.1 6.1-3.6 1.5-4.2 1-8.5-1-12.2 6.3-.9 12.4-3 18-6.2 2.2-1.3 2.8-3.4 2.3-5.3.2 0 .4.1.6.1 1.6.1 2.8-.4 3.7-1.2 1.3.6 2.8.6 4.4-.5 6-4.1 12.9-6.4 18.8-10.6 2.9-2 5.6-4.8 7.6-7.7.8-1.3 1.5-2.6 1.7-4.1.1-.5.1-.9.1-1.4C315.7 206.6 312.8 201.3 308.7 201.6zM279.7 224.8c-.1.1-.2.1-.3.2-.8-.5-1.7-.9-2.9-.9-4.3-.2-5.9 3.7-4.9 6.9-.9-.1-1.9.1-2.9.7-7.6 4.3-16 6.1-24.7 4.7-6.5-1-11.9-4.1-17.6-7.2-4.9-2.7-9.9-5.2-14.7-8.1-2-1.2-3.9-2.5-5.7-4-.1-.1-.2-.1-.2-.2.2-.3.4-.7.5-1 .6.2 1.2.3 1.9.4.7.1 1.4.1 2-.1 7.1 1.9 15 2.7 22.3 3.5-.1.1-.2.2-.3.3-.9 1-1.5 2.3-1.4 3.6 0 1.3.6 2.6 1.5 3.5 1 1 2.2 1.4 3.6 1.4l1.5.1c1.2.1 2.6-.6 3.5-1.5.9-1 1.5-2.3 1.4-3.6 0-1-.4-2-1-2.8 2.8.3 5.7.6 8.5.9-.5.2-.9.5-1.2.9-1 1-1.4 2.2-1.4 3.6 0 .3 0 .6 0 .9 0 .5.1 1 .2 1.5.4 1.2.6 1.3 1.4 2.3.6.7 1.8 1.3 2.6 1.5.7.2 1.5.2 2.3.2 1.2.1 2.6-.6 3.5-1.5.9-1 1.5-2.3 1.4-3.6 0-1.3-.6-2.6-1.5-3.5-.2-.2-.4-.3-.6-.5-.2-.4-.5-.8-.9-1.1-.2-.2-.3-.3-.5-.4 9.8.7 19.7.9 29.5-.1C283.1 222.7 281.4 223.7 279.7 224.8zM298.4 208c-4 2.8-10 3.5-15 3.9-7.7.7-15.5.6-23.3.2-10.9-.5-21.8-1.7-32.7-3.3-3.8-.6-7.9-1-11.9-1.8.2-.1.5-.1.7-.2 6.9-2 14.1-3 21.3-3.6 15.9-1.5 32.3-1.7 48.1.2 2.9.3 5.7.8 8.6 1.4 2.3.5 4.2 1.1 5.4 1.7C299.6 206.9 299.2 207.5 298.4 208zM256.6 278.5c-.1-.4-.3-.9-.4-1.3 0-.1-.1-.2-.1-.4 0-2.7-2.5-4.9-5.1-4.8-2.8.1-4.9 2.4-4.9 5.1 0 1.2.3 2.3.7 3.4.2.5.3.9.4 1.4 0 .1 0 .1 0 .1 0 .4 0 .8 0 1.2-.1 2.7 2.5 5 5.1 4.9 2.8-.1 4.8-2.4 4.9-5.1C257.2 281.4 257 279.9 256.6 278.5zM255.5 309.5c-1-.9-2.3-1.5-3.6-1.4-1.3 0-2.6.6-3.5 1.5-1 1-1.4 2.2-1.4 3.6l-.1 1.5c-.1 1.2.6 2.6 1.5 3.5 1 .9 2.3 1.5 3.6 1.4 1.3 0 2.6-.6 3.5-1.5 1-1 1.4-2.2 1.4-3.6l.1-1.5C257.1 311.7 256.4 310.3 255.5 309.5zM255.9 356.1c-1-.9-2.3-1.5-3.6-1.4-1.3 0-2.6.6-3.5 1.5-1 1-1.4 2.2-1.4 3.6l-.1 1.5c-.1 1.2.6 2.6 1.5 3.5 1 .9 2.3 1.5 3.6 1.4 1.3 0 2.6-.6 3.5-1.5 1-1 1.4-2.2 1.4-3.6l.1-1.5C257.4 358.3 256.7 356.9 255.9 356.1z"/><path fill="#FEBF10" d="M316.3,417.9c0.3-1.2,0.1-2.3-0.3-3.2c-0.9-0.2-1.7-0.6-2.3-1.3c-0.5-0.4-0.8-1-1.1-1.6c-1.3-0.5-2.8-0.7-4.1-0.5c-0.8,0.1-1.6-0.1-2.3-0.4c-0.4,0.1-0.8,0.1-1.2,0.1c-0.3,0-0.5,0-0.7-0.1c-0.2,4.7-8,6.2-9.9,0.8c-0.9-2.4-2.1-4.8-3.5-7c-0.2,0.9-0.6,1.7-1.3,2.4c-1.3,1.3-3.3,1.8-5,1.3c0,0.2,0.1,0.5,0.1,0.8c0,2.5-2.2,5.4-4.9,5.1c-1.5-0.2-2.7-0.5-4.1-1c-0.5-0.2-1-0.4-1.5-0.6c-0.5-0.2-2.1-0.4-0.2-0.2c-2.7-0.3-5-1.9-5.1-4.9c0-2.2,1.7-4.7,4-5.1c-0.4-0.7-0.6-1.4-0.6-2.2c-0.1-2.6,2.2-5.3,4.9-5.1c2.1,0.1,4.1,0.4,6,1c-5.1-4.2-11.3-7.2-17.7-8.2c-0.8,0.9-2,1.5-3.7,1.4c-0.1,0-0.2,0-0.3,0c0,0-0.1,0-0.1,0c-0.5,0-0.9-0.1-1.4-0.2c-0.2,0.5-0.4,1-0.8,1.5c0.8,0.6,1.6,1.3,2.3,2c1.9,2,2,5.1,0.1,7.1c-1.9,1.9-5.2,2.1-7.1,0.1c-0.5-0.5-1-1-1.5-1.4c-0.2-0.1-1.2-0.9-0.2-0.1c-0.2-0.2-0.4-0.3-0.6-0.5c-1.2-0.9-2.4-1.8-3.4-2.8c-0.4-0.4-0.7-0.9-0.9-1.4c-0.8,0.6-1.8,1-2.8,0.9c-1.3-0.1-3-0.4-4.3,0c-1.3,1.9-2.8,3.8-4,5.8c-1.5,2.5-4.1,2.9-6.2,2c-1.8,2-3.4,4.1-4.7,6.4c-0.7,1.3-1.8,2-2.9,2.3c0.1,1.5-0.4,3.1-1.5,4.1c-0.1,2.6-2.2,4.9-4.9,4.9c0,0-0.1,0-0.2,0c-0.1,0-0.1,0.1-0.2,0.1c-0.1,0.1-0.2,0.1-0.2,0.2c-0.8,0.8-1.5,1.6-2.3,2.4c-1.3,1.2-3,1.7-4.6,1.4c0,0.1,0,0.2,0,0.2c0.4,0,0.8,0,1.2-0.1c16.2-0.7,32.4-1.2,48.7-0.9c15.8,0.3,31.5,1.5,47.3,0.6c4-0.2,8-0.5,11.9-0.8C316.6,421.7,315.8,420,316.3,417.9z"/><path fill="#127274" d="M372.1 57.3c-12.9-1.6-26.1 1.7-38.7 4.3-5.6 1.2-11.8 3.1-17.5 3.1-6.8 0-13.6.1-20.4.1-15.1.1-30.3.2-45.4.2-14.9 0-29.7 1.2-44.6 1.7-29.4 1.1-58.9 1.3-88.3-1.1-4.6 5-4.8 13.7-3.6 20.1 1.6 8 4.6 16.3 12.6 19.7 9.8 4.2 21.6 4 32.1 3.6 12-.5 24-1.9 36-2.5 32.8-1.4 65.5-2.9 98.3-5.1 14-.9 28-2.4 42.1-2.3 11.5.1 24.4.8 35-4.5 1.7-.8 3.3-.7 4.6 0 .8-1.2 2.1-1.9 3.9-1.8l.5 0C381.4 80.8 387.3 59.2 372.1 57.3zM380.8 444.1c-4.8-22.5-36-13.5-51.8-12.1-15.5 1.3-31.2 2.6-46.8 1.9-16.2-.7-32.4-1.2-48.7-.8-29.4.7-58.7 2.9-88.1 4.3-.6.8-1.4 1.5-2.7 1.9-3.6 1.1-11.6 2.8-13.4 6.6-1.3 2.7 8.1 9.3 10.2 10.5 9.8 5.4 21.4 5.9 32.3 6.4 14.4.7 29 .1 43.4.3 15.5.2 30.9.6 46.4.9 18.1.3 36.2.1 54.3-.1 14.1-.1 28.5-.5 42.3-3.4 6.1-1.3 12.5-2.9 17.6-6.6C379.5 451.4 381.7 448.2 380.8 444.1z"/><path fill="#010101" d="M377.5,423.5c-3.5-2-7.5-3.2-11.6-3.8c0.6-0.9,1-1.9,0.9-2.9c-2.3-29-17.8-54.7-31.3-79.8c-6.7-12.5-12.9-25-22.8-35.3c-8.5-8.9-20.5-17.9-24-30.3c-2.5-8.8,4.9-16.2,11-21.3c7.4-6.2,16.1-10.7,24-16.2c20.1-13.8,33.4-35.6,40.6-58.5c6-19.4,7.8-39.9,8.9-60.1c0,0,0-0.1,0-0.1c0-0.2,0-0.4,0-0.6c0-0.8,0.1-1.6,0.1-2.4c0-0.3,0-0.6,0-0.9c0-2.4,0-4.8-0.4-7.2c0.6-0.3,1.1-0.5,1.7-0.8c0.6-0.3,1.1-0.7,1.4-1c0.6,0.3,1.4,0.5,2.2,0.6l4.5,0.3c2.1,0.1,4.4-1.7,4.7-3.8c2.3-14.1,10.4-36.9-3.4-47.7c-8.8-6.9-22.7-4.9-32.9-3.5c-13,1.8-26.1,6.5-39.3,6.6c-31.7,0.2-63.3,0.1-95,1.5c-31.9,1.4-63.9,2-95.7-0.3c-1.4-1.7-3.8-2.6-6.3-1.2c-0.4,0.2-0.7,0.4-1,0.6c-0.4,0-0.7-0.1-1.1-0.1c-3.6-0.3-5.1,2.6-4.6,5.4c-8.7,11.7-5.5,31.4,1.5,43.1c5.2,8.8,14.6,12.9,24.9,14.5c-1.2,17.1,1.4,34.2,5.6,50.7c4.2,16.5,10.2,34.4,19.8,48.6c8.4,12.5,20.5,19.8,33.5,26.7c5.6,2.9,11.5,5.3,17.1,8c4,2,9,4.3,12.3,7.8c-0.2,7-4.3,12.4-9.3,17.2c-2.6,2.6-5.6,4.8-8.5,7.1c-3.3,2.4-6,5.5-8.9,8.4c-10.9,10.9-21.5,22-30.6,34.5c-9.1,12.5-15.7,26.5-19.8,41.4c-5.1,18.5-3.4,38.6-4.5,57.6c0,0.5,0,0.9,0.1,1.3c-1.5,0.1-3,0.1-4.6,0.2c-3,0.1-4.6,2.4-4.7,4.7c-7.2,3-14.5,7.7-12.7,15.9c1.2,5.4,5.7,9.4,9.7,12.9c4.4,3.9,9.9,6.3,15.5,8c10.7,3.3,23.2,3.9,34.4,3.8c16-0.3,32,0,48.1,0.3c26.2,0.5,52.3,0.7,78.4,0.6c13.6,0,27.2-0.1,40.8-1.6c13.1-1.4,28.7-3.6,38.7-13.1C396.5,448.6,389.5,430.4,377.5,423.5z M126.3,105.5c-8-3.4-11-11.8-12.6-19.7c-1.2-6.4-1-15,3.6-20.1c29.4,2.4,58.8,2.2,88.3,1.1c14.9-0.5,29.7-1.6,44.6-1.7c15.1,0,30.3-0.1,45.4-0.2c6.8,0,13.6-0.1,20.4-0.1c5.7,0,11.9-2,17.5-3.1c12.5-2.6,25.8-5.9,38.7-4.3c15.1,1.9,9.3,23.4,6.6,35.5l-0.5,0c-1.9-0.1-3.2,0.7-3.9,1.8c-1.3-0.7-2.9-0.8-4.6,0c-10.6,5.3-23.5,4.6-35,4.5c-14.1-0.1-28,1.4-42.1,2.3c-32.7,2.2-65.5,3.7-98.3,5.1c-12,0.5-24,2-36,2.5C147.9,109.5,136.1,109.7,126.3,105.5z M151.4,426.1l0.2-3.4c0-0.2,0-0.4,0-0.6c0.7-18.1-0.1-36.5,4.9-54c4.3-14.8,12-28.4,21.5-40.5c4.6-5.8,9.5-11.3,14.6-16.6c2.8-3,5.7-5.9,8.6-8.8c2.9-2.9,5.8-6.6,9.1-9c9.9-7.4,20.2-16.4,22.3-28.8c1.5-1.4,2.2-3.7,1.1-6c-5.2-10.8-20.4-15.6-30.5-20.2c-12.2-5.6-24.6-12.3-32.9-23.2c-10.1-13.2-15.6-31-19.9-46.8c-4.3-15.8-6.7-32.3-5.7-48.7c7.3,0.3,14.6-0.2,20.7-0.6c13-0.9,26-2,39-2.5c16.4-0.7,32.8-1.5,49.1-2.3c29.7-1.6,59.3-4.4,89-4.6c7,0,14.1-0.4,20.9-2c0.2,2.2,0.1,4.3,0,6.5c-1.4,24.1-3.6,48.8-13.1,71.2c-4.8,11.3-11.7,21.5-20.3,30.3c-7.6,7.8-16.6,13.3-25.7,19.2c-15.9,10.4-32.1,24.8-23.1,45.3c5.3,11.9,16.7,21,25.5,30.2c10,10.4,15.9,24.5,22.7,37c10.9,20.2,23.2,41.2,26.6,64.3c-1.6,1.1-2.6,2.9-2.1,5.3c0.3,1.1,0.7,1.9,1.2,2.6c-2.7,0.1-5.3,0.3-7.8,0.6c-7.4,0.8-14.9,1.6-22.3,2.3c0.3-0.5,0.6-1.1,0.8-1.8c1.1-4.8-0.3-9.4-3-12.9c-0.2-0.4-0.5-0.8-0.8-1.1c-0.2-0.2-0.5-0.4-0.7-0.6c-3.4-3.2-8.1-5-13.2-4.4c0,0,0,0,0,0c-0.6-0.6-1.4-1-2.3-1.2c-0.1-0.4-0.3-0.8-0.5-1.3c-2.7-4.6-5.5-9.8-10.2-12.8c-2.7-1.7-5.3-0.4-6.6,1.7c-7.8-6.3-17.3-10.3-27.2-10.5c-2.6-1.2-5.8-1.5-8.8-1.6c-2.7-0.2-4.9,2.5-4.9,5.1c0,1.7,0.8,3,2,3.8c-0.2,0.7-0.3,1.5-0.2,2.3c-0.1,0.1-0.2,0.1-0.3,0.2c-0.8-1.7-2.6-2.8-4.6-2.9c-3.4-0.2-7.2-0.3-10,1.8c-1.6,1.2-2.4,3-3.6,4.5c-0.1,0.2-0.3,0.3-0.4,0.5c-1.7-0.4-3.5,0-4.9,1.3c-3.5,3.2-6.5,7-8.9,11.1c-0.3,0.5-0.5,1.1-0.6,1.6c-3,0.3-4.3,2.9-4.1,5.5c-0.2,0.1-0.5,0.2-0.7,0.4c-1.2,0.1-2.3,0.5-3.1,1.3c-2.6,0-4.7,2.6-4.7,5c-1.8-0.1-3.1,0.5-4,1.6c-1-0.8-2.2-1.3-3.4-1.3c-1.3,0-2.6,0.6-3.5,1.5c-0.4,0.4-0.7,0.8-0.9,1.2c-0.1,0-0.2,0-0.3,0c-2.6-0.1-4.8,2.3-4.9,4.8c-11.8,0.7-23.5,1.4-35.3,2C151.4,426.8,151.4,426.4,151.4,426.1z M252.8,398.2c0.5,0.4,1,0.9,1.5,1.4c1.9,2,5.2,1.8,7.1-0.1c2-2,1.8-5.1-0.1-7.1c-0.7-0.7-1.5-1.4-2.3-2c0.3-0.4,0.6-0.9,0.8-1.5c0.4,0.1,0.9,0.1,1.4,0.2c0,0,0.1,0,0.1,0c0.1,0,0.2,0,0.3,0c1.7,0.1,2.9-0.5,3.7-1.4c6.4,1.1,12.6,4,17.7,8.2c-1.9-0.6-3.8-0.8-6-1c-2.7-0.2-4.9,2.5-4.9,5.1c0,0.8,0.2,1.6,0.6,2.2c-2.3,0.3-4.1,2.9-4,5.1c0.1,3,2.4,4.6,5.1,4.9c-1.8-0.2-0.3,0.1,0.2,0.2c0.5,0.2,1,0.4,1.5,0.6c1.4,0.6,2.6,0.9,4.1,1c2.7,0.3,4.9-2.6,4.9-5.1c0-0.3,0-0.5-0.1-0.8c1.7,0.5,3.7,0,5-1.3c0.7-0.7,1.1-1.5,1.3-2.4c1.4,2.2,2.6,4.5,3.5,7c1.9,5.3,9.7,3.8,9.9-0.8c0.2,0,0.5,0.1,0.7,0.1c0.4,0,0.8,0,1.2-0.1c0.7,0.4,1.5,0.5,2.3,0.4c1.4-0.1,2.8,0,4.1,0.5c0.3,0.6,0.6,1.1,1.1,1.6c0.7,0.7,1.5,1.1,2.3,1.3c0.4,0.9,0.6,2,0.3,3.2c-0.5,2.1,0.3,3.9,1.7,4.9c-4,0.3-7.9,0.6-11.9,0.8c-15.8,0.9-31.5-0.3-47.3-0.6c-16.2-0.3-32.4,0.2-48.7,0.9c-0.4,0-0.8,0-1.2,0.1c0-0.1,0-0.2,0-0.2c1.6,0.3,3.3-0.2,4.6-1.4c0.8-0.7,1.5-1.6,2.3-2.4c0,0,0.1-0.1,0.2-0.2c0.1,0,0.1-0.1,0.2-0.1c0.1,0,0.1,0,0.2,0c2.6,0.1,4.8-2.3,4.9-4.9c1.1-1,1.5-2.6,1.5-4.1c1.1-0.3,2.1-1,2.9-2.3c1.4-2.3,3-4.5,4.7-6.4c2.1,0.9,4.7,0.6,6.2-2c1.2-2,2.7-3.9,4-5.8c1.3-0.3,3-0.1,4.3,0c1.1,0.1,2-0.3,2.8-0.9c0.2,0.5,0.5,1,0.9,1.4c1,1.1,2.3,2,3.4,2.8c0.2,0.2,0.4,0.3,0.6,0.5C251.6,397.3,252.6,398.1,252.8,398.2z M376,453.9c-5.2,3.6-11.6,5.2-17.6,6.6c-13.8,3-28.2,3.3-42.3,3.4c-18.1,0.2-36.2,0.3-54.3,0.1c-15.5-0.2-30.9-0.6-46.4-0.9c-14.5-0.2-29,0.4-43.4-0.3c-11-0.5-22.5-1-32.3-6.4c-2.1-1.2-11.5-7.8-10.2-10.5c1.8-3.9,9.9-5.5,13.4-6.6c1.2-0.4,2.1-1.1,2.7-1.9c29.4-1.4,58.7-3.6,88.1-4.3c16.3-0.4,32.4,0.1,48.7,0.8c15.6,0.7,31.2-0.6,46.8-1.9c15.8-1.3,47-10.4,51.8,12.1C381.7,448.2,379.5,451.4,376,453.9z"/><path fill="#010101" d="M260.4 408.9c-1-.9-2.3-1.5-3.6-1.4-1.3 0-2.6.6-3.5 1.5-.5.5-.8 1.1-1.1 1.7-.1.1-.2.2-.2.2-.3.4-.8.9-1 1.5-.6 1.3-.6 1.7-.8 3.1-.1 1.2.7 2.6 1.5 3.5 1 .9 2.3 1.5 3.6 1.4 1.3 0 2.6-.6 3.5-1.5.5-.5.8-1.1 1.1-1.7.1-.1.2-.2.2-.2.3-.4.8-.9 1-1.5.6-1.3.6-1.7.8-3.1C262 411.2 261.2 409.7 260.4 408.9zM246.6 414.1c-.2-.2-.4-.3-.6-.5-.2-.4-.5-.8-.9-1.1-1-.9-2.3-1.5-3.6-1.4-1.3 0-2.6.6-3.5 1.5-1 1-1.4 2.2-1.4 3.6 0 .3 0 .6 0 .9 0 .5.1 1 .2 1.5.4 1.2.6 1.3 1.4 2.3.6.7 1.8 1.3 2.6 1.5.7.2 1.5.2 2.3.2 1.2.1 2.6-.6 3.5-1.5.9-1 1.5-2.3 1.4-3.6C248 416.3 247.5 415.1 246.6 414.1z"/></svg>