<svg xmlns="http://www.w3.org/2000/svg"  viewBox="0 0 100 100" width="100px" height="100px" baseProfile="basic"><path fill="#f27c7c" d="M16.013,46V19c0-1.105,0.895-2,2-2h63.98c1.105,0,2,0.895,2,2v27c0,1.105-0.895,2-2,2H63.5 L50,33.999L34.5,48H18.013C16.909,48,16.013,47.105,16.013,46z"/><path fill="#e85654" d="M63.5,48L50,33.999L34.5,48l-16.487-0.001c-1.105,0-2-0.895-2-2V44h16.951l17.228-15.569L65.195,44 h18.798v2c0,1.105-0.895,2-2,2H63.5z"/><path fill="#fefdef" d="M63.507,48l-13.5-14.001L34.507,48L18,47.999L18,81c0,1.105,0.895,2,2,2h60.007c1.105,0,2-0.895,2-2 l0-33.001L63.507,48z"/><path fill="#e0decf" d="M19.993,83h60.014c1.105,0,2-0.895,2-2v-5H17.993v5C17.993,82.105,18.888,83,19.993,83z"/><path fill="#c17d48" d="M57.5,82.5V62.577c0-4.087-3.65-7.078-7.5-7.078s-7.5,3.028-7.5,7.078v19.922L57.5,82.5L57.5,82.5z"/><path fill="#78cdd4" d="M73.506,58.5l-2-2h-7v11h9V58.5z"/><path fill="#78cdd4" d="M35.5,65.5l-2,2h-7v-11h9V65.5z"/><polygon fill="#ceccbe" points="35.527,51.499 50,38.293 62.473,51.499 82.007,51.499 82.007,47.999 63.5,48 50,33.999 34.5,48 17.993,47.999 17.993,51.499"/><g><path fill="#1f212b" d="M80.503,44H74.5c-0.276,0-0.5-0.224-0.5-0.5s0.224-0.5,0.5-0.5h6.003c0.276,0,0.5,0.224,0.5,0.5 S80.78,44,80.503,44z"/><path fill="#1f212b" d="M70.5,44h-5.088c-0.136,0-0.266-0.055-0.36-0.153L56.041,34.5c-0.192-0.199-0.186-0.516,0.013-0.707 c0.199-0.191,0.516-0.186,0.707,0.013L65.625,43H70.5c0.276,0,0.5,0.224,0.5,0.5S70.776,44,70.5,44z"/><path fill="#1f212b" d="M32.769,44c-0.136,0-0.272-0.056-0.371-0.165c-0.185-0.205-0.169-0.521,0.036-0.706l17.448-15.76 c0.2-0.182,0.508-0.17,0.695,0.024l3.961,4.108c0.192,0.199,0.186,0.516-0.013,0.707c-0.198,0.192-0.515,0.187-0.707-0.013 l-3.625-3.76L33.104,43.871C33.008,43.958,32.888,44,32.769,44z"/><path fill="#1f212b" d="M29.519,44H19.251c-0.276,0-0.5-0.224-0.5-0.5s0.224-0.5,0.5-0.5h10.267c0.276,0,0.5,0.224,0.5,0.5 S29.795,44,29.519,44z"/><path fill="#1f212b" d="M39.5,77H17.993c-0.276,0-0.5-0.224-0.5-0.5s0.224-0.5,0.5-0.5H39.5c0.276,0,0.5,0.224,0.5,0.5 S39.776,77,39.5,77z"/><path fill="#1f212b" d="M73.506,77H60.5c-0.276,0-0.5-0.224-0.5-0.5s0.224-0.5,0.5-0.5h13.006c0.276,0,0.5,0.224,0.5,0.5 S73.783,77,73.506,77z"/><path fill="#1f212b" d="M82.007,77H76.5c-0.276,0-0.5-0.224-0.5-0.5s0.224-0.5,0.5-0.5h5.507c0.276,0,0.5,0.224,0.5,0.5 S82.284,77,82.007,77z"/><path fill="#1f212b" d="M73.506,68h-9c-0.276,0-0.5-0.224-0.5-0.5v-11c0-0.276,0.224-0.5,0.5-0.5h7 c0.276,0,0.5,0.224,0.5,0.5s-0.224,0.5-0.5,0.5h-6.5v10h8v-8.5c0-0.276,0.224-0.5,0.5-0.5s0.5,0.224,0.5,0.5v9 C74.006,67.776,73.783,68,73.506,68z"/><path fill="#1f212b" d="M33.5,68h-7c-0.276,0-0.5-0.224-0.5-0.5v-11c0-0.276,0.224-0.5,0.5-0.5h9c0.276,0,0.5,0.224,0.5,0.5 v9c0,0.276-0.224,0.5-0.5,0.5S35,65.776,35,65.5V57h-8v10h6.5c0.276,0,0.5,0.224,0.5,0.5S33.776,68,33.5,68z"/><path fill="#1f212b" d="M33.5,68h-7c-0.276,0-0.5-0.224-0.5-0.5v-11c0-0.276,0.224-0.5,0.5-0.5h9c0.276,0,0.5,0.224,0.5,0.5 v9c0,0.276-0.224,0.5-0.5,0.5S35,65.776,35,65.5V57h-8v10h6.5c0.276,0,0.5,0.224,0.5,0.5S33.776,68,33.5,68z"/><path fill="#1f212b" d="M81.994,49H63.5c-0.271,0-0.531-0.11-0.72-0.306L49.952,35.39L35.17,48.742 C34.986,48.908,34.748,49,34.5,49H18.013c-1.654,0-3-1.346-3-3V19c0-1.654,1.346-3,3-3h63.98c1.654,0,3,1.346,3,3v27 C84.994,47.654,83.648,49,81.994,49z M63.925,47h18.069c0.551,0,1-0.449,1-1V19c0-0.551-0.449-1-1-1h-63.98c-0.551,0-1,0.449-1,1 v27c0,0.551,0.449,1,1,1h16.102L49.33,33.257c0.4-0.361,1.016-0.34,1.39,0.048L63.925,47z"/><path fill="#1f212b" d="M80,83.999H19.993c-1.654,0-3-1.346-3-3v-33h2v33c0,0.551,0.449,1,1,1H80c0.551,0,1-0.449,1-1v-33h2 v33C83,82.653,81.654,83.999,80,83.999z"/><path fill="#1f212b" d="M57.5,83c-0.276,0-0.5-0.224-0.5-0.5V62.577c0-3.935-3.62-6.578-7-6.578s-7,2.643-7,6.578v19.922 c0,0.276-0.224,0.5-0.5,0.5s-0.5-0.224-0.5-0.5V62.577c0-4.179,3.589-7.578,8-7.578c4.336,0,8,3.47,8,7.578V82.5 C58,82.776,57.776,83,57.5,83z"/><path fill="#1f212b" d="M73.506,61h-9c-0.276,0-0.5-0.224-0.5-0.5s0.224-0.5,0.5-0.5h9c0.276,0,0.5,0.224,0.5,0.5 S73.783,61,73.506,61z"/><path fill="#1f212b" d="M35.5,61h-9c-0.276,0-0.5-0.224-0.5-0.5s0.224-0.5,0.5-0.5h9c0.276,0,0.5,0.224,0.5,0.5 S35.776,61,35.5,61z"/><path fill="#1f212b" d="M54.5,70h-2c-0.276,0-0.5-0.224-0.5-0.5s0.224-0.5,0.5-0.5h2c0.276,0,0.5,0.224,0.5,0.5 S54.776,70,54.5,70z"/></g></svg>